<svg width="28" height="28" viewBox="0 0 28 28" fill="none" xmlns="http://www.w3.org/2000/svg">
<g clip-path="url(#clip0_2_89)">
<path d="M5.18504 9.00016L5.18504 9.00014C5.6033 7.11895 6.63839 5.43155 8.12577 4.20619C9.61316 2.98083 11.4675 2.28783 13.3939 2.23737C15.3204 2.1869 17.2085 2.78185 18.758 3.92766C20.3075 5.07346 21.4295 6.70435 21.9457 8.56106L21.8493 8.58785L21.9457 8.56107L24.1622 16.536C24.1623 16.5361 24.1623 16.5362 24.1623 16.5363C24.3129 17.0708 24.3369 17.633 24.2323 18.1784C24.1278 18.7237 23.8976 19.2372 23.5599 19.678C23.5599 19.6781 23.5598 19.6782 23.5597 19.6783L23.4803 19.6175C23.1552 20.0488 22.734 20.3983 22.2502 20.6383C21.7664 20.8783 21.2332 21.0021 20.6932 21L5.18504 9.00016ZM5.18504 9.00016L3.47004 16.7188C3.35307 17.245 3.35576 17.7908 3.47792 18.3158C3.60008 18.8409 3.83858 19.3318 4.17584 19.7523C4.51309 20.1728 4.94048 20.5122 5.42645 20.7455C5.91243 20.9788 6.44458 21.0999 6.98364 21.1L20.6928 21.1L5.18504 9.00016ZM26.2178 15.9658L26.2382 16.039H26.2388C26.4574 16.8686 26.4872 17.737 26.3254 18.5802C26.1589 19.4483 25.7939 20.266 25.259 20.9697C24.7241 21.6733 24.0338 22.2438 23.2419 22.6364C22.4501 23.0291 21.5782 23.2334 20.6943 23.2333H19.7167H19.6349L19.6187 23.3134C19.3555 24.6095 18.6523 25.7747 17.6283 26.6117C16.6044 27.4487 15.3225 27.9059 14 27.9059C12.6775 27.9059 11.3956 27.4487 10.3716 26.6117C9.34766 25.7747 8.6445 24.6095 8.38133 23.3134L8.36506 23.2333H8.28333H6.98366C6.12506 23.2334 5.27742 23.0406 4.50332 22.6691C3.72921 22.2977 3.04841 21.7572 2.51118 21.0874C1.97395 20.4177 1.594 19.6358 1.39938 18.7996C1.20477 17.9633 1.20046 17.094 1.38678 16.2559L3.10294 8.53839C3.62451 6.19288 4.91513 4.08901 6.76965 2.5612C8.62418 1.0334 10.9362 0.169334 13.3382 0.106358C15.7401 0.0433828 18.0942 0.78511 20.0263 2.21364C21.9583 3.64217 23.3574 5.67551 24.0011 7.99046L26.2178 15.9658ZM10.7147 23.2333H10.5732L10.6204 23.3667C10.8677 24.0662 11.3251 24.6722 11.9299 25.1018C12.5348 25.5314 13.2577 25.7636 13.9996 25.7667L14.0004 25.7667C14.7423 25.7636 15.4652 25.5314 16.07 25.1018C16.6749 24.6722 17.1323 24.0662 17.3796 23.3667L17.4267 23.2333H17.2853H10.7147Z" fill="#6D7D93" stroke="white" stroke-width="0.2"/>
</g>
<defs>
<clipPath id="clip0_2_89">
<rect width="28" height="28" fill="white"/>
</clipPath>
</defs>
</svg>
